<?xml version="1.0" encoding="utf-8"?>
<!-- Generator: Adobe Illustrator 18.1.0, SVG Export Plug-In . SVG Version: 6.00 Build 0)  -->
<!DOCTYPE svg PUBLIC "-//W3C//DTD SVG 1.1//EN" "http://www.w3.org/Graphics/SVG/1.1/DTD/svg11.dtd">
<svg version="1.1" id="Layer_1" xmlns="http://www.w3.org/2000/svg" xmlns:xlink="http://www.w3.org/1999/xlink" x="0px" y="0px"
	 width="120px" height="143px" viewBox="0 0 120 143" enable-background="new 0 0 120 143" xml:space="preserve">
<g>
	<rect x="0" fill="#F5F5F5" width="120" height="143"/>
	<path fill="#5B6770" d="M23.5,120.2c-0.2-0.2-0.5-0.4-0.8-0.5c0.2-0.1,0.4-0.3,0.6-0.5c0.2-0.2,0.4-0.5,0.5-0.9
		c0.1-0.3,0.2-0.7,0.2-1c0-0.5-0.1-0.9-0.3-1.3c-0.2-0.4-0.4-0.7-0.7-1c-0.3-0.3-0.7-0.4-1.1-0.6c-0.4-0.1-0.8-0.2-1.3-0.2h-4.9
		v11.3h4.8c0.5,0,1.1-0.1,1.5-0.2c0.5-0.1,0.9-0.3,1.2-0.6c0.4-0.3,0.6-0.6,0.8-1c0.2-0.4,0.3-0.9,0.3-1.4c0-0.5-0.1-0.9-0.2-1.2
		C23.9,120.8,23.7,120.4,23.5,120.2z M20.6,124.6h-3.9v-4.4h3.9c0.3,0,0.7,0,1,0.1c0.3,0.1,0.6,0.2,0.9,0.4c0.2,0.2,0.4,0.4,0.6,0.6
		c0.1,0.3,0.2,0.6,0.2,1c0,0.4-0.1,0.7-0.2,1c-0.1,0.3-0.3,0.5-0.5,0.7c-0.2,0.2-0.5,0.3-0.8,0.4C21.4,124.6,21,124.6,20.6,124.6z
		 M22.3,118.7c-0.2,0.2-0.5,0.3-0.7,0.4c-0.3,0.1-0.6,0.1-0.9,0.1h-3.9v-3.9h3.9c0.3,0,0.7,0,1,0.1c0.3,0.1,0.5,0.2,0.7,0.4
		c0.2,0.2,0.4,0.4,0.5,0.6c0.1,0.2,0.2,0.6,0.2,0.9c0,0.3-0.1,0.6-0.2,0.8C22.7,118.3,22.5,118.5,22.3,118.7z"/>
	<path fill="#5B6770" d="M29.4,117.2c-0.4,0.1-0.7,0.3-1,0.5c-0.1,0.1-0.3,0.2-0.4,0.3v-0.8h-1v8.4h1v-4.7c0-0.4,0.1-0.8,0.2-1.1
		c0.1-0.4,0.3-0.7,0.5-0.9c0.2-0.3,0.5-0.5,0.8-0.6c0.3-0.1,0.7-0.2,1.2-0.2l0.4,0v-1l-0.5,0C30.2,117.1,29.8,117.1,29.4,117.2z"/>
	<path fill="#5B6770" d="M39.1,124.6C39.1,124.6,39.1,124.6,39.1,124.6c0,0-0.1,0-0.1-0.1v-4.9c0-0.5-0.1-0.9-0.3-1.2
		c-0.2-0.3-0.4-0.6-0.7-0.8c-0.3-0.2-0.6-0.3-0.9-0.4c-0.3-0.1-0.7-0.1-1-0.1c-0.5,0-1,0.1-1.4,0.2c-0.4,0.1-0.7,0.3-1,0.6
		c-0.3,0.3-0.5,0.6-0.6,0.9c-0.1,0.4-0.2,0.7-0.3,1.1l0,0.4h1l0-0.3c0-0.6,0.2-1.1,0.6-1.4c0.4-0.3,0.9-0.5,1.6-0.5
		c0.5,0,0.8,0.1,1.1,0.2c0.2,0.1,0.4,0.2,0.5,0.4c0.1,0.2,0.2,0.3,0.2,0.5c0,0.2,0.1,0.5,0.1,0.7c0,0.2,0,0.4-0.1,0.5
		c-0.1,0.1-0.2,0.2-0.3,0.2c-0.2,0.1-0.5,0.1-0.9,0.1l-0.3,0c-0.3,0-0.6,0-1,0.1c-0.3,0-0.6,0.1-1,0.1c-0.4,0.1-0.7,0.2-1,0.4
		c-0.3,0.2-0.5,0.5-0.7,0.8c-0.2,0.3-0.3,0.8-0.3,1.3c0,0.8,0.3,1.4,0.8,1.8c0.5,0.4,1.2,0.6,2.1,0.6c0.4,0,0.8-0.1,1.2-0.2
		c0.4-0.1,0.7-0.3,1-0.5c0.2-0.1,0.4-0.3,0.5-0.4c0,0.3,0.2,0.6,0.4,0.7c0.2,0.1,0.5,0.2,0.8,0.2H40v-1l-0.7,0.1
		C39.2,124.6,39.1,124.6,39.1,124.6z M38,121.4v0.8c0,0.3-0.1,0.7-0.2,1c-0.1,0.3-0.3,0.6-0.5,0.8c-0.2,0.2-0.5,0.4-0.9,0.6
		c-0.3,0.1-0.7,0.2-1.2,0.2c-0.4,0-0.7,0-0.9-0.1c-0.2-0.1-0.4-0.2-0.6-0.3c-0.1-0.1-0.2-0.3-0.3-0.4c-0.1-0.2-0.1-0.3-0.1-0.5
		c0-0.3,0.1-0.6,0.2-0.8c0.1-0.2,0.2-0.3,0.4-0.5c0.2-0.1,0.4-0.2,0.6-0.2c0.3-0.1,0.6-0.1,0.8-0.1c0.3,0,0.6,0,0.9,0
		c0.3,0,0.6,0,0.9-0.1C37.6,121.6,37.8,121.5,38,121.4C38,121.4,38,121.4,38,121.4z"/>
	<path fill="#5B6770" d="M47.8,117.9c-0.3-0.3-0.6-0.5-1-0.6c-0.7-0.2-1.7-0.3-2.4,0c-0.3,0.1-0.7,0.3-0.9,0.5
		c-0.1,0.1-0.3,0.2-0.4,0.3v-0.8h-1v8.4h1v-4.7c0-0.4,0.1-0.8,0.2-1.1c0.1-0.4,0.3-0.7,0.5-0.9c0.2-0.3,0.4-0.5,0.7-0.6
		c0.3-0.2,0.7-0.2,1-0.2c0.3,0,0.6,0,0.8,0.1c0.2,0.1,0.4,0.2,0.6,0.4c0.2,0.2,0.3,0.4,0.4,0.6c0.1,0.3,0.2,0.6,0.2,1v5.4h1v-5.4
		c0-0.5-0.1-0.9-0.2-1.3C48.3,118.5,48.1,118.1,47.8,117.9z"/>
	<path fill="#5B6770" d="M57.2,118.5c-0.1-0.2-0.3-0.4-0.5-0.5c-0.6-0.5-1.3-0.7-2.2-0.7c-0.6,0-1.1,0.1-1.6,0.4
		c-0.4,0.2-0.8,0.6-1.1,1c-0.3,0.4-0.5,0.9-0.7,1.4c-0.2,0.5-0.2,1.1-0.2,1.6c0,0.6,0.1,1.2,0.2,1.7c0.2,0.5,0.4,1,0.7,1.4
		c0.3,0.4,0.7,0.7,1.1,0.9c0.5,0.2,1,0.3,1.5,0.3c0.9,0,1.6-0.2,2.2-0.7c0.2-0.2,0.4-0.3,0.5-0.5v1.1h1v-11.3h-1V118.5z M54.4,125
		c-0.4,0-0.8-0.1-1.1-0.3c-0.3-0.2-0.6-0.4-0.8-0.7c-0.2-0.3-0.4-0.7-0.5-1.1c-0.1-0.4-0.2-0.8-0.2-1.3c0-0.4,0.1-0.8,0.2-1.2
		c0.1-0.4,0.3-0.8,0.5-1.1c0.2-0.3,0.5-0.6,0.8-0.8c0.3-0.2,0.7-0.3,1.2-0.3c0.8,0,1.5,0.3,2,0.8c0.5,0.6,0.8,1.4,0.8,2.5
		c0,0.5-0.1,0.9-0.2,1.3c-0.1,0.4-0.3,0.8-0.5,1.1c-0.2,0.3-0.5,0.5-0.8,0.7C55.2,124.9,54.9,125,54.4,125z"/>
	<path fill="#5B6770" d="M94.2,122.6c0,0.3-0.1,0.6-0.2,0.9c-0.1,0.3-0.3,0.5-0.5,0.7c-0.2,0.2-0.5,0.3-0.8,0.4
		c-0.3,0.1-0.6,0.2-0.9,0.2c-0.5,0-0.8-0.1-1.2-0.2c-0.3-0.2-0.6-0.4-0.8-0.7c-0.2-0.3-0.4-0.6-0.5-1c-0.1-0.4-0.2-0.8-0.2-1.2
		c0-0.4,0.1-0.9,0.2-1.3c0.1-0.4,0.3-0.8,0.5-1.1c0.2-0.3,0.5-0.6,0.9-0.8c0.4-0.2,0.8-0.3,1.4-0.3c0.3,0,0.5,0,0.8,0.1
		c0.2,0.1,0.5,0.2,0.7,0.3c0.2,0.2,0.3,0.3,0.5,0.6c0.1,0.2,0.2,0.5,0.3,0.9l0,0.3h1l0-0.4c0-0.5-0.2-0.9-0.4-1.2
		c-0.2-0.3-0.4-0.6-0.7-0.9c-0.3-0.2-0.6-0.4-1-0.5c-0.4-0.1-0.7-0.2-1.1-0.2c-0.6,0-1.2,0.1-1.8,0.4c-0.5,0.3-0.9,0.6-1.2,1
		c-0.3,0.4-0.6,0.9-0.7,1.4c-0.2,0.5-0.2,1.1-0.2,1.7c0,0.6,0.1,1.1,0.2,1.6c0.2,0.5,0.4,0.9,0.7,1.3c0.3,0.4,0.7,0.7,1.2,0.9
		c0.5,0.2,1,0.3,1.6,0.3c0.5,0,0.9-0.1,1.3-0.2c0.4-0.1,0.8-0.3,1.1-0.6c0.3-0.3,0.6-0.6,0.8-1c0.2-0.4,0.3-0.8,0.3-1.3l0-0.4h-1
		L94.2,122.6z"/>
	<path fill="#5B6770" d="M104,118.9c-0.1-0.4-0.4-0.7-0.7-1c-0.3-0.3-0.6-0.5-1-0.6c-0.7-0.2-1.7-0.3-2.4,0
		c-0.3,0.1-0.7,0.3-0.9,0.5c-0.1,0.1-0.2,0.2-0.4,0.3v-3.8h-1v11.3h1v-4.7c0-0.4,0.1-0.8,0.2-1.1c0.1-0.3,0.3-0.7,0.5-0.9
		c0.2-0.3,0.5-0.5,0.8-0.6c0.3-0.2,0.6-0.2,1-0.2c0.3,0,0.6,0,0.8,0.1c0.2,0.1,0.5,0.2,0.6,0.4c0.2,0.2,0.3,0.4,0.4,0.6
		c0.1,0.3,0.2,0.6,0.2,1v5.4h1v-5.4C104.3,119.7,104.2,119.3,104,118.9z"/>
	<polygon fill="#5B6770" points="68.6,123.8 66.5,117.2 65.5,117.2 63.4,123.8 61.4,117.2 60.4,117.2 63,125.6 63.9,125.6 66,119 
		68.1,125.4 68.2,125.6 69.1,125.6 71.8,117.2 70.7,117.2 	"/>
	<path fill="#5B6770" d="M79.8,124.6C79.8,124.6,79.8,124.6,79.8,124.6c0,0-0.1,0-0.1-0.1v-4.9c0-0.5-0.1-0.9-0.3-1.2
		c-0.2-0.3-0.4-0.6-0.7-0.8c-0.3-0.2-0.6-0.3-0.9-0.4c-0.3-0.1-0.7-0.1-1-0.1c-0.5,0-1,0.1-1.4,0.2c-0.4,0.1-0.7,0.3-1,0.6
		c-0.3,0.3-0.5,0.6-0.6,0.9c-0.1,0.4-0.2,0.7-0.2,1.1l0,0.4h1l0-0.3c0-0.6,0.2-1.1,0.6-1.4c0.4-0.3,0.9-0.5,1.6-0.5
		c0.4,0,0.8,0.1,1.1,0.2c0.2,0.1,0.4,0.2,0.5,0.4c0.1,0.2,0.2,0.3,0.2,0.5c0,0.2,0.1,0.4,0.1,0.7c0,0.2,0,0.4-0.1,0.5
		c-0.1,0.1-0.2,0.2-0.4,0.2c-0.2,0.1-0.5,0.1-0.8,0.1l-0.4,0c-0.3,0-0.6,0-1,0.1c-0.3,0-0.6,0.1-1,0.1c-0.4,0.1-0.7,0.2-1,0.4
		c-0.3,0.2-0.5,0.5-0.7,0.8c-0.2,0.3-0.3,0.8-0.3,1.3c0,0.8,0.3,1.4,0.8,1.8c0.5,0.4,1.2,0.6,2.1,0.6c0.4,0,0.8-0.1,1.2-0.2
		c0.4-0.1,0.7-0.3,1-0.5c0.2-0.1,0.4-0.3,0.5-0.4c0,0.4,0.2,0.6,0.4,0.7c0.2,0.1,0.5,0.2,0.8,0.2h0.8v-1l-0.7,0.1
		C79.9,124.6,79.8,124.6,79.8,124.6z M78.7,121.4v0.8c0,0.3-0.1,0.7-0.2,1c-0.1,0.3-0.3,0.6-0.5,0.8c-0.2,0.2-0.5,0.4-0.9,0.6
		c-0.3,0.1-0.7,0.2-1.2,0.2c-0.4,0-0.7,0-0.9-0.1c-0.2-0.1-0.4-0.2-0.6-0.3c-0.1-0.1-0.2-0.3-0.3-0.4c-0.1-0.2-0.1-0.3-0.1-0.5
		c0-0.3,0.1-0.6,0.2-0.8c0.1-0.2,0.2-0.3,0.4-0.5c0.2-0.1,0.4-0.2,0.6-0.2c0.3-0.1,0.6-0.1,0.8-0.1c0.3,0,0.6,0,0.9,0
		c0.3,0,0.6,0,0.9-0.1C78.3,121.6,78.5,121.5,78.7,121.4C78.7,121.4,78.7,121.4,78.7,121.4z"/>
	<path fill="#5B6770" d="M84.4,114.8h-1v2.4H82v1h1.4v5.6c0,0.7,0.2,1.1,0.5,1.4c0.3,0.3,0.7,0.4,1.1,0.4c0.2,0,0.4,0,0.5,0l0.6-0.1
		v-1.1l-0.5,0.2c0,0,0,0-0.2,0c-0.2,0-0.5,0-0.7,0c-0.1,0-0.1,0-0.2-0.1c0,0-0.1-0.1-0.1-0.2c0-0.1-0.1-0.2-0.1-0.5v-5.5h1.7v-1
		h-1.7V114.8z"/>
	<g>
		<path fill-rule="evenodd" clip-rule="evenodd" fill="#E1B87F" d="M88.6,78.5c-0.2,1.7-1.8,2.9-3.5,2.7c-1.7-0.2-2.9-1.8-2.7-3.5
			c0.2-1.7,1.8-2.9,3.5-2.7C87.6,75.2,88.8,76.8,88.6,78.5z"/>
		<path fill-rule="evenodd" clip-rule="evenodd" fill="#8094DD" d="M80.8,81c-0.2,1.2-1.2,2-2.4,1.8c-1.2-0.2-2-1.2-1.8-2.4
			c0.2-1.2,1.2-2,2.4-1.8C80.1,78.8,81,79.9,80.8,81z"/>
		<path fill-rule="evenodd" clip-rule="evenodd" fill="#A2AAAD" d="M75.8,63c-0.1,0.8-0.8,1.4-1.6,1.3c-0.8-0.1-1.4-0.8-1.3-1.6
			c0.1-0.8,0.8-1.4,1.6-1.3C75.3,61.4,75.9,62.2,75.8,63z"/>
		<path fill-rule="evenodd" clip-rule="evenodd" fill="#C8102E" d="M55.9,73c-0.1,0.7-0.8,1.3-1.5,1.2c-0.8-0.1-1.3-0.8-1.2-1.5
			c0.1-0.8,0.8-1.3,1.5-1.2C55.5,71.6,56,72.2,55.9,73z"/>
		<path fill-rule="evenodd" clip-rule="evenodd" fill="#DBB7BB" d="M83.5,83.9c-0.1,0.7-0.8,1.3-1.5,1.2c-0.8-0.1-1.3-0.8-1.2-1.5
			c0.1-0.8,0.8-1.3,1.5-1.2C83.1,82.4,83.6,83.1,83.5,83.9z"/>
		<path fill-rule="evenodd" clip-rule="evenodd" fill="#C16784" d="M64.9,83.1c-0.1,0.8-0.8,1.4-1.6,1.3c-0.8-0.1-1.4-0.8-1.2-1.6
			c0.1-0.8,0.8-1.4,1.6-1.3C64.5,81.6,65,82.3,64.9,83.1z"/>
		<path fill-rule="evenodd" clip-rule="evenodd" fill="#A0D1CA" d="M65.5,51.3c-1.3-0.1-2.3-1.3-2.2-2.6c0.1-1.3,1.3-2.3,2.6-2.2
			c1.3,0.1,2.3,1.3,2.2,2.6C67.9,50.5,66.8,51.5,65.5,51.3z"/>
		<path fill-rule="evenodd" clip-rule="evenodd" fill="#92C1E9" d="M63.7,79.8c-2.9-0.2-5.1-2.8-4.9-5.8c0.2-3,2.9-5.1,5.8-4.9
			c3,0.2,5.2,2.8,4.9,5.8C69.3,77.8,66.7,80,63.7,79.8z"/>
		<path fill-rule="evenodd" clip-rule="evenodd" fill="#B7BF10" d="M67.2,67.8c-2.2-0.2-3.9-2.1-3.7-4.3c0.2-2.2,2.1-3.9,4.3-3.7
			c2.2,0.2,3.9,2.1,3.7,4.4C71.4,66.4,69.4,68,67.2,67.8z"/>
		<path fill-rule="evenodd" clip-rule="evenodd" fill="#E1E000" d="M56.1,87.6c-1.8-0.1-3.1-1.7-3-3.5c0.2-1.8,1.7-3.1,3.5-3
			c1.8,0.2,3.1,1.7,3,3.5C59.5,86.5,57.9,87.8,56.1,87.6z"/>
		<path fill-rule="evenodd" clip-rule="evenodd" fill="#E24585" d="M80.3,86.8c0.2,1.2-0.6,2.3-1.9,2.5c-1.2,0.2-2.4-0.6-2.5-1.9
			c-0.2-1.2,0.6-2.4,1.9-2.5C79,84.8,80.1,85.6,80.3,86.8z"/>
		<path fill-rule="evenodd" clip-rule="evenodd" fill="#7C6992" d="M85.9,69.1c-0.8-0.1-1.4-0.8-1.3-1.5c0.1-0.8,0.8-1.4,1.5-1.3
			c0.8,0.1,1.4,0.8,1.3,1.5C87.4,68.5,86.7,69.1,85.9,69.1z"/>
		<path fill-rule="evenodd" clip-rule="evenodd" fill="#8F7E35" d="M68.4,91.9c-0.7-0.1-1.3-0.7-1.2-1.5c0.1-0.7,0.7-1.3,1.5-1.2
			c0.7,0.1,1.3,0.7,1.2,1.4C69.8,91.4,69.1,91.9,68.4,91.9z"/>
		<path fill-rule="evenodd" clip-rule="evenodd" fill="#64CCC9" d="M60.1,103.8c-1.2-0.1-2.2-1.2-2.1-2.4c0.1-1.2,1.2-2.2,2.4-2.1
			c1.2,0.1,2.2,1.2,2.1,2.4C62.4,102.9,61.3,103.9,60.1,103.8z"/>
		<path fill-rule="evenodd" clip-rule="evenodd" fill="#EF6079" d="M43.9,81.3c-1.1-0.1-2-1.1-1.9-2.3c0.1-1.1,1.1-2,2.2-1.9
			c1.1,0.1,2,1.1,1.9,2.2C46,80.6,45,81.4,43.9,81.3z"/>
		<path fill-rule="evenodd" clip-rule="evenodd" fill="#F99FC9" d="M93.1,67.8c-1.7-0.1-2.9-1.6-2.7-3.3c0.1-1.7,1.6-2.9,3.3-2.7
			c1.7,0.1,2.9,1.6,2.8,3.2C96.2,66.7,94.7,68,93.1,67.8z"/>
		<path fill-rule="evenodd" clip-rule="evenodd" fill="#298FC2" d="M85.2,41.9c-0.7-0.1-1.2-0.6-1.1-1.3c0.1-0.7,0.6-1.2,1.3-1.1
			c0.7,0.1,1.2,0.6,1.1,1.3C86.5,41.4,85.9,41.9,85.2,41.9z"/>
		<path fill-rule="evenodd" clip-rule="evenodd" fill="#C6BCD0" d="M49.4,92.7c-1.1-0.1-1.9-1-1.8-2.1c0.1-1.1,1-1.9,2.1-1.8
			c1.1,0.1,1.9,1,1.8,2.1C51.4,92,50.5,92.8,49.4,92.7z"/>
		<path fill-rule="evenodd" clip-rule="evenodd" fill="#D986BA" d="M59.2,68.9c-1.5-0.1-2.7-1.5-2.6-3.1c0.1-1.6,1.5-2.7,3.1-2.6
			c1.6,0.1,2.7,1.5,2.6,3C62.1,67.9,60.7,69,59.2,68.9z"/>
		<path fill-rule="evenodd" clip-rule="evenodd" fill="#00968F" d="M100,87c-1.1-0.1-2-1.1-1.9-2.2c0.1-1.1,1.1-1.9,2.2-1.8
			c1.1,0.1,2,1.1,1.9,2.2C102.1,86.3,101.1,87.1,100,87z"/>
		<path fill-rule="evenodd" clip-rule="evenodd" fill="#FA4616" d="M85,97.3c-0.7-0.1-1.3-0.7-1.2-1.5c0.1-0.7,0.7-1.3,1.5-1.2
			c0.7,0.1,1.3,0.7,1.2,1.4C86.4,96.8,85.8,97.3,85,97.3z"/>
		<path fill-rule="evenodd" clip-rule="evenodd" fill="#FFA300" d="M71.1,86.9c-2.4-0.2-4.2-2.3-4-4.7c0.2-2.4,2.3-4.2,4.7-4
			c2.4,0.2,4.2,2.3,4,4.7C75.6,85.3,73.5,87.1,71.1,86.9z"/>
		<path fill-rule="evenodd" clip-rule="evenodd" fill="#E87722" d="M76.3,77.8c-3.6-0.3-6.2-3.4-5.9-7c0.3-3.6,3.4-6.2,7-5.9
			c3.6,0.3,6.2,3.5,5.9,7C83,75.4,79.9,78.1,76.3,77.8z"/>
		<path fill-rule="evenodd" clip-rule="evenodd" fill="#DAAA00" d="M45.3,62.5c-1.1-0.1-2-1.1-1.9-2.2c0.1-1.1,1.1-2,2.2-1.9
			c1.1,0.1,2,1.1,1.9,2.2C47.5,61.8,46.5,62.6,45.3,62.5z"/>
		<path fill-rule="evenodd" clip-rule="evenodd" fill="#F3CFB3" d="M27,94c-0.8-0.1-1.4-0.8-1.3-1.6c0.1-0.8,0.8-1.4,1.6-1.3
			c0.8,0.1,1.4,0.8,1.3,1.6C28.5,93.5,27.8,94.1,27,94z"/>
		<path fill-rule="evenodd" clip-rule="evenodd" fill="#FFCD00" d="M79.6,56.5c-1.2-0.1-2.2-1.1-2.1-2.3c0.1-1.2,1.1-2.2,2.3-2.1
			c1.2,0.1,2.2,1.1,2.1,2.3C81.8,55.6,80.8,56.6,79.6,56.5z"/>
		<path fill-rule="evenodd" clip-rule="evenodd" fill="#F8485E" d="M83.8,64.5c-1.2-0.1-2.2-1.1-2.1-2.3c0.1-1.2,1.1-2.2,2.3-2.1
			c1.2,0.1,2.2,1.1,2.1,2.3C86,63.7,85,64.6,83.8,64.5z"/>
	</g>
</g>
</svg>
